:SAMPLES-PER-SECOND 30
:FRAME-RANGE 1-1770
:FULLY-SPECIFIED
:DEGREES
996
root  -53.5974 37.9381 27.3745 -82.9589 84.2392 -84.6926
RightUpLeg  -9.8167 -15.4412 -4.8306
RightLeg  21.9587 -3.32279 0.884174
RightFoot  -11.4962 -0.0567703 16.0133
RightToes  6.35937e-011 1.2921e-014 -6.02303e-014
Spine  8.58224 -1.1342 11.5823
Spine1  -0.302998 -0.0573753 0.140323
HEad  -7.43268 22.9738 -12.3619
LeftShoulder1  1.67958 -1.06467 -30.7172
LeftArm  16.0189 -13.599 -28.584
LeftForeArm  -0.871085 -21.4696 -5.92792
LeftHand  0.0426901 -2.22826 -0.467791
RightShoulder  7.81343 14.449 37.4943
RightArm  -9.8338 13.0428 8.24871
RightForeArm  21.6023 7.74641 12.3688
RightHand  -0.324247 4.60719 -4.05191
LeftUpLeg  -24.9429 17.8181 0.871338
LeftLeg  61.2751 0.0908008 0.760293
LeftFoot  -1.50295 0.391936 -4.44863
LeftToes  3.18074e-010 1.39432e-010 -7.71186e-011
997
root  -52.7725 38.1917 27.665 -111.749 84.593 -113.617
RightUpLeg  -6.36606 -13.9091 -6.05178
RightLeg  19.1324 -7.28762 1.04567
RightFoot  -11.7515 -0.0208799 16.4948
RightToes  6.35937e-011 1.2921e-014 -6.02303e-014
Spine  8.33517 -0.511874 11.429
Spine1  -0.874135 0.486675 -0.758664
HEad  -6.6737 20.507 -11.8006
LeftShoulder1  1.70046 -1.23532 -29.825
LeftArm  13.5857 -18.7038 -26.6368
LeftForeArm  -1.04197 -21.5464 -5.87809
LeftHand  0.0032015 -2.00396 0.121064
RightShoulder  8.22734 16.1738 35.8025
RightArm  -11.0058 15.1254 7.80614
RightForeArm  20.3136 10.0644 11.2967
RightHand  -0.370075 4.47901 -4.63484
LeftUpLeg  -28.4804 20.2882 -1.75687
LeftLeg  56.2 -0.219858 0.145392
LeftFoot  -3.30705 0.276521 -3.65457
LeftToes  3.18074e-010 1.39432e-010 -7.71186e-011
998
root  -51.9306 38.3955 27.8967 -135.395 83.6179 -137.569
RightUpLeg  -2.9545 -12.6797 -6.82774
RightLeg  15.7852 -10.919 1.5329
RightFoot  -11.7826 -0.0154506 16.7886
RightToes  6.35937e-011 1.2921e-014 -6.02303e-014
Spine  8.03998 0.123039 10.9127
Spine1  -1.57807 0.963508 -1.39773
HEad  -5.74326 18.3389 -11.0936
LeftShoulder1  1.69259 -1.37099 -28.6442
LeftArm  10.9172 -23.8183 -24.941
LeftForeArm  -0.903586 -21.8182 -5.68348
LeftHand  -0.0600463 -1.66138 1.14237
RightShoulder  8.4785 17.7503 33.882
RightArm  -12.968 17.5132 7.25421
RightForeArm  20.2412 11.8813 10.1697
RightHand  -0.410061 4.86435 -4.93478
LeftUpLeg  -31.1747 22.9452 -4.6296
LeftLeg  48.6775 0.564227 1.11212
LeftFoot  -4.68437 0.201217 -2.976
LeftToes  3.18074e-010 1.39432e-010 -7.71186e-011
999
root  -51.1063 38.5675 28.0683 -149.828 82.1037 -152.412
RightUpLeg  0.349571 -12.3393 -7.3309
RightLeg  12.0555 -13.429 2.17646
RightFoot  -11.5684 -0.0450462 17.0562
RightToes  6.35937e-011 1.2921e-014 -6.02303e-014
Spine  7.92179 0.649649 10.0286
Spine1  -2.31698 1.39375 -2.09635
HEad  -5.09044 16.2842 -10.3966
LeftShoulder1  1.67376 -1.52231 -27.1869
LeftArm  7.23753 -28.6708 -23.307
LeftForeArm  0.382691 -22.2513 -5.35656
LeftHand  -0.123784 -1.55471 2.22099
RightShoulder  8.63456 19.2496 31.9119
RightArm  -13.0474 19.842 6.73993
RightForeArm  17.6957 14.5711 8.71557
RightHand  -0.503159 4.55831 -6.15173
LeftUpLeg  -32.7024 26.1075 -7.88527
LeftLeg  38.8723 0.226728 0.563724
LeftFoot  -5.41506 0.142528 -2.12494
LeftToes  3.18074e-010 1.39432e-010 -7.71186e-011
1000
root  -50.2979 38.705 28.1691 -158.501 80.2335 -161.574
RightUpLeg  3.52376 -11.8582 -7.52862
RightLeg  8.14968 -16.0195 2.82562
RightFoot  -11.1936 -0.0994782 17.6499
RightToes  6.35937e-011 1.2921e-014 -6.02303e-014
Spine  7.63006 0.924967 9.06743
Spine1  -2.53958 1.71572 -2.95073
HEad  -4.74508 14.5495 -9.80781
LeftShoulder1  1.65322 -1.68948 -25.6679
LeftArm  3.06839 -33.3277 -21.575
LeftForeArm  1.52205 -22.8712 -5.04837
LeftHand  -0.1597 -1.29833 2.90973
RightShoulder  8.79615 20.823 30.068
RightArm  -13.74 22.0485 5.97395
RightForeArm  15.2209 17.1173 7.138
RightHand  -0.593375 3.7612 -7.77701
LeftUpLeg  -32.9115 28.9257 -11.1889
LeftLeg  27.5735 -0.75461 -0.092289
LeftFoot  -5.67824 0.188791 -3.12763
LeftToes  3.18074e-010 1.39432e-010 -7.71186e-011
1001
root  -49.3841 38.6803 28.1806 -163.727 77.8586 -166.762
RightUpLeg  6.73559 -11.4612 -7.54534
RightLeg  5.83634 -18.4422 3.2316
RightFoot  -11.6346 -0.0318274 18.5168
RightToes  6.35937e-011 1.2921e-014 -6.02303e-014
Spine  7.35324 0.887148 7.93541
Spine1  -2.26828 1.67876 -3.06014
HEad  -4.47144 13.0374 -9.347
LeftShoulder1  1.61141 -1.81623 -24.0546
LeftArm  -1.21502 -37.5647 -20.0094
LeftForeArm  2.69093 -23.5514 -4.91226
LeftHand  -0.184492 -0.843779 3.54363
RightShoulder  8.9689 22.5213 28.2957
RightArm  -15.1516 23.8646 5.10247
RightForeArm  14.5527 19.4589 5.63768
RightHand  -0.657668 3.95575 -8.42231
LeftUpLeg  -31.3488 28.2192 -12.2555
LeftLeg  19.0412 1.02094 0.717786
LeftFoot  -5.48146 0.132703 -1.94923
LeftToes  3.18074e-010 1.39432e-010 -7.71186e-011
